<svg width="19" height="23" viewBox="0 0 19 23" fill="none" xmlns="http://www.w3.org/2000/svg">
<path fill-rule="evenodd" clip-rule="evenodd" d="M8.06105 22.1145C5.62946 19.8584 0.220947 14.348 0.220947 9.96911C0.220947 4.32046 3.82095 0.554688 9.22095 0.554688C14.6209 0.554688 18.2209 5.2619 18.2209 9.96911C18.2209 13.6428 12.7393 19.6101 10.3321 22.0534C9.69969 22.6953 8.72029 22.7262 8.06105 22.1145ZM12.2209 8.71386C12.2209 10.447 10.8778 11.852 9.22095 11.852C7.56409 11.852 6.22095 10.447 6.22095 8.71386C6.22095 6.98071 7.56409 5.57571 9.22095 5.57571C10.8778 5.57571 12.2209 6.98071 12.2209 8.71386Z" fill="black"/>
</svg>
