<svg width="23" height="23" viewBox="0 0 23 23" fill="none" xmlns="http://www.w3.org/2000/svg">
<path d="M11.2209 0.554688C5.15548 0.554688 0.220947 5.48923 0.220947 11.5546C0.220947 17.6201 5.15548 22.5547 11.2209 22.5547C13.4431 22.5547 15.5857 21.8931 17.417 20.6415L17.4488 20.6197L15.9669 18.8968L15.9416 18.9131C14.5318 19.82 12.8994 20.2994 11.2209 20.2994C6.39904 20.2994 2.47621 16.3765 2.47621 11.5546C2.47621 6.73273 6.39904 2.80989 11.2209 2.80989C16.0428 2.80989 19.9657 6.73273 19.9657 11.5546C19.9657 12.1795 19.8963 12.8121 19.7598 13.4345C19.4831 14.5693 18.6887 14.917 18.0918 14.871C17.4918 14.8226 16.7895 14.3947 16.7849 13.3482V11.5546C16.7849 8.48663 14.2889 5.99067 11.2209 5.99067C8.15293 5.99067 5.65691 8.48663 5.65691 11.5546C5.65691 14.6227 8.15293 17.1187 11.2209 17.1187C12.7111 17.1187 14.1092 16.5358 15.1629 15.4762C15.7756 16.4297 16.7747 17.0277 17.9111 17.1189C18.0085 17.1268 18.1081 17.1308 18.207 17.1308C19.0071 17.1308 19.8001 16.8633 20.4395 16.3778C21.099 15.8773 21.5912 15.1531 21.8631 14.2836C21.907 14.1432 21.9865 13.8213 21.9869 13.8193L21.9892 13.8077C22.1495 13.1095 22.2209 12.4139 22.2209 11.5546C22.2209 5.48923 17.2863 0.554688 11.2209 0.554688Z" fill="#0A0A0A"/>
<circle cx="11.2209" cy="11.5546" r="3.66667" fill="#D9D9D9"/>
</svg>
