<svg width="19" height="23" viewBox="0 0 19 23" fill="none" xmlns="http://www.w3.org/2000/svg">
<path fill-rule="evenodd" clip-rule="evenodd" d="M9.06836 15.0161L11.6124 11.8128C12.315 10.9281 12.4892 9.5766 12.0449 8.45754L11.9007 8.09455C11.4563 6.9755 11.6305 5.62396 12.3331 4.73927L15.4876 0.767527C15.7129 0.483741 16.0784 0.483741 16.3038 0.767527C16.3476 0.822755 16.3841 0.886527 16.4119 0.956386L17.6862 4.16533C18.661 6.62021 18.2789 9.5851 16.7375 11.5259L9.8132 20.2443C8.13542 22.3568 5.6537 23.0945 3.40271 22.1497L0.615735 20.98C0.313347 20.8531 0.149925 20.4416 0.250721 20.0608C0.279054 19.9538 0.326788 19.8566 0.390144 19.7768L3.45044 15.9235C4.15308 15.0389 5.22649 14.8195 6.11525 15.3791L6.40355 15.5605C7.29231 16.1201 8.36572 15.9008 9.06836 15.0161Z" fill="black"/>
</svg>
