<?xml version="1.0" encoding="UTF-8" standalone="no"?>
<svg
   version="1.1"
   width="455.26361"
   height="285"
   id="svg153"
   viewBox="0 0 455.26361 285"
   sodipodi:docname="d41a3052b32d598e7aed7b54b7647506.cdr"
   xmlns:inkscape="http://www.inkscape.org/namespaces/inkscape"
   xmlns:sodipodi="http://sodipodi.sourceforge.net/DTD/sodipodi-0.dtd"
   xmlns="http://www.w3.org/2000/svg"
   xmlns:svg="http://www.w3.org/2000/svg">
  <defs
     id="defs157" />
  <sodipodi:namedview
     id="namedview155"
     pagecolor="#ffffff"
     bordercolor="#666666"
     borderopacity="1.0"
     inkscape:pageshadow="2"
     inkscape:pageopacity="0.0"
     inkscape:pagecheckerboard="0" />
  <path
     d="m 169.721,177.88615 -0.7053,32.6027 c -0.0116,0.5539 -0.0334,1.1012 -0.0961,1.6398 l -30.7522,1.1276 -133.0993,0.6707 c 33.4941,-14.256 45.8104,-19.112 59.0193,-27.1927 12.8894,-7.8855 21.1521,-12.0456 25.8987,-15.5316 3.562,-2.6158 9.7792,-6.2365 10.5752,-6.6881 0.2917,-0.1655 5.8833,-4.0813 5.8833,-4.0813 0,0 3.7942,-2.6705 4.6259,-3.2791 2.0676,-1.3763 3.7253,-2.2272 5.6472,-2.4628 1.4462,-0.2061 3.2541,-0.1258 5.21,0.65 0.9162,0.3708 1.7691,0.7733 3.1734,1.455 0.7061,0.3751 2.9591,1.5991 3.3475,1.8547 0.388,0.2554 2.5528,1.6365 2.8975,1.8871 0.345,0.2508 2.251,1.5902 4.3294,2.9625 2.0786,1.3719 3.8715,2.5817 4.6063,3.0685 0.7344,0.4867 1.9352,1.3524 8.3265,4.782 4.3344,2.3261 8.0467,3.8716 9.2242,4.3642 0.3679,0.1539 2.213,0.9661 3.6658,1.476 1.2651,0.4079 4.9237,0.8765 8.2227,0.6948 z"
     style="fill:#000000;fill-rule:evenodd;stroke:#000000;stroke-width:0.5669;stroke-linecap:butt;stroke-linejoin:miter;stroke-dasharray:none"
     id="path2" />
  <path
     d="m 340.9962,160.24895 c -3.8624,-0.6902 -5.2432,-1.8014 -7.0214,-2.988 -1.7779,-1.1868 -5.6945,-4.3653 -5.6945,-4.3653 -5.2381,-3.7046 -7.9259,-7.8673 -12.5663,-11.179 -1.3263,-0.9465 -3.2578,-2.6853 -10.8603,-3.9855 -0.8618,-0.1474 -2.5475,-1.1733 -3.483,-1.8958 -0.5159,-0.2243 -9.9986,-10.2107 -18.5419,-11.3296 -1.2354,-0.1618 -3.3313,-0.6726 -5.1424,-0.3512 -1.8108,0.3215 -3.6204,0.0919 -4.8447,-0.2267 -1.8779,-0.5463 -3.5274,-1.7252 -8.0073,-4.1117 -0.4164,-0.1797 -3.6986,-1.6917 -5.8501,-1.4573 -2.1518,0.2344 -3.1167,0.9819 -3.6094,1.3411 -1.057,0.7713 -3.2295,2.946 -3.7633,3.4914 -4.4645,5.4454 -9.6,13.9176 -14.2027,18.7985 -0.2993,0.3175 -2.7357,3.2845 -2.9698,3.6397 -0.5015,0.76 -1.925,2.4134 -1.925,2.4134 0,0 -3.7627,3.9802 -4.5459,4.8683 -0.7833,0.8881 -7.0175,4.9731 -7.0175,4.9731 0,0 -3.7165,2.501 -5.8799,3.6513 -2.1807,1.5188 -8.3523,4.6621 -8.3523,4.6621 -4.1352,2.6623 -6.1137,3.1581 -10.063,5.1477 -7.8681,2.9549 -18.2817,6.9931 -31.2834,6.558 l 3.6436,27.3348 c 0.1089,0.8166 0.0411,6.1027 -0.0961,6.8904 l 115.0719,-3.9484 136.6739,4.0731 c -0.1457,-0.4558 -5.2846,-3.4526 -10.9664,-7.3176 -4.0689,-2.7128 -7.2624,-4.794 -11.0228,-6.948 -5.5823,-3.3866 -12.079,-6.9114 -14.2107,-8.4631 -5.6888,-4.1414 -6.2705,-4.4737 -12.2295,-10.3862 -6.7079,-7.1061 -6.8697,-7.6198 -8.93,-9.8101 -1.9564,-1.9749 -4.3117,-4.4552 -7.9242,-6.0778 -7.2876,-2.6214 -10.5231,-2.3111 -14.3856,-3.0016 z"
     style="fill:#000000;fill-rule:evenodd;stroke:#000000;stroke-width:0.5669;stroke-linecap:butt;stroke-linejoin:miter;stroke-dasharray:none"
     id="path4" />
  <path
     d="m 326.9827,170.96515 c 0,0 -4.8279,-3.7004 -6.3255,-7.1276 -1.4623,-3.3462 -1.2365,-4.2675 -0.4828,-4.4937 1.7834,-0.3153 5.6456,0.9968 7.2221,1.5912 1.5765,0.5944 2.6898,1.1101 4.0791,1.9312 l 2.9361,1.6749 c 0,0 -3.882,-0.7683 -4.8673,-0.4333 -0.9853,0.335 -1.2229,1.6471 -1.271,2.3154 -0.0767,1.0633 -0.0295,1.271 0.01,2.0198 0.0394,0.7488 0.5517,3.7046 0.5517,3.7046 z"
     style="fill:#ffffff;fill-rule:evenodd;stroke:#000000;stroke-width:0.5669;stroke-linecap:butt;stroke-linejoin:miter;stroke-dasharray:none"
     id="path6" />
  <path
     d="m 294.7271,167.13375 c 0,0 -5.6394,-5.3515 -7.3657,-7.7108 -1.7263,-2.3593 -3.6252,-5.2366 -3.6252,-5.2366 0,0 -1.7262,-2.5893 -2.4743,-3.0497 -2.5784,-1.5868 -6.245,-2.0116 -8.7467,-5.4667 -1.2084,-1.6688 -0.7769,-1.1942 -0.7769,-1.1942 0,0 -4.1721,5.7258 -7.4521,8.0275 -3.28,2.3016 -5.6392,3.3374 -6.2147,3.6252 -0.5755,0.2877 -2.5895,0.8632 -2.5895,0.8632 0,0 2.4169,-3.5678 2.8772,-4.3734 0.4603,-0.8056 0.9783,-2.5895 1.0358,-2.9348 0.0184,-0.11 -3.3216,0.7071 -4.1431,0.7482 0,0 4.6608,-5.6969 5.8117,-8.1137 1.1508,-2.4169 3.5676,-7.5958 3.5676,-7.5958 0,0 -6.7744,8.225 -11.1634,12.1993 -9.3618,8.4774 -23.5628,15.2573 -34.9866,20.6006 0,0 6.8652,-1.6774 11.0372,-3.3462 5.3821,-2.1529 9.5651,-3.3853 14.8861,-5.8896 0.4892,-0.2302 2.8485,-1.4386 2.8485,-1.4386 0,0 -1.381,3.5388 -2.9347,5.4378 -1.5537,1.899 -3.1362,3.3664 -3.1362,3.3664 0,0 5.5124,-1.4934 7.2675,-2.1264 2.4024,-0.8662 4.973,-2.4299 7.2335,-3.7143 l -0.6617,3.1362 c 0,0 4.8137,-1.978 7.9699,-3.798 3.1562,-1.8201 5.5529,-3.5965 5.927,-3.9418 0.374,-0.3452 2.5895,-2.273 2.5895,-2.273 l 0.3739,-0.3164 1.6401,4.2007 c 0,0 0.2878,0.8631 0.7481,1.1508 0.4603,0.2877 5.5934,2.2278 6.6175,2.7622 1.024,0.5344 2.3593,1.2372 3.28,2.273 0.9207,1.0358 1.266,1.4386 1.266,1.4386 4.2057,0.5613 5.5585,1.2056 9.2937,2.6903 z"
     style="fill:#ffffff;fill-rule:evenodd;stroke:#000000;stroke-width:0.5669;stroke-linecap:butt;stroke-linejoin:miter;stroke-dasharray:none"
     id="path8" />
  <path
     d="m 110.9782,161.78245 c 0,0 -6.621,10.9563 -12.848,17.735 -6.227,6.7787 -19.4691,15.8433 -19.4691,15.8433 0,0 19.7844,-10.4833 25.6173,-19.3114 5.8328,-8.8281 6.6998,-14.2669 6.6998,-14.2669 z"
     style="fill:#ffffff;fill-rule:evenodd;stroke:#000000;stroke-width:0.5669;stroke-linecap:butt;stroke-linejoin:miter;stroke-dasharray:none"
     id="path10" />
  <g
     id="Layer1000"
     transform="translate(-66.7681,-122.91625)">
    <path
       d="m 361.124,306.4332 0.3003,-0.3888"
       style="fill:none"
       id="path12" />
    <path
       d="m 361.6995,305.5235 0.0862,-0.5149"
       style="fill:none"
       id="path14" />
    <path
       d="m 361.7454,304.4524 -0.178,-0.488"
       style="fill:none"
       id="path16" />
    <path
       d="m 360.9342,303.6044 -1.5529,-0.565 -1.9556,-0.4555 -1.8181,-0.3598"
       style="fill:none"
       id="path18" />
    <path
       d="m 361.2021,306.3426 c 0.3015,-0.3381 0.3828,-0.538 0.4434,-0.7373 0.0606,-0.1993 0.1004,-0.398 0.0987,-0.6307 -0.002,-0.2327 -0.0447,-0.4995 -0.1249,-0.7014 -0.0802,-0.202 -0.1975,-0.3391 -0.4676,-0.4942 -0.27,-0.1551 -0.6927,-0.3281 -1.1762,-0.4923 -0.4835,-0.1642 -1.0278,-0.3196 -1.5676,-0.4568 -0.5398,-0.1372 -1.0751,-0.2561 -1.541,-0.354 -0.466,-0.098 -0.8627,-0.1749 -1.1044,-0.224 -0.2417,-0.0491 -0.3285,-0.0703 -0.3593,-0.053 -0.0308,0.0174 -0.006,0.0734 0.008,0.1456 0.0135,0.0722 0.0154,0.1607 0.0168,0.3046 10e-4,0.1438 0.002,0.3429 10e-4,0.52 -10e-4,0.1771 -0.005,0.3321 -0.007,0.4227 -0.002,0.0906 -0.003,0.1168 0.0214,0.134 0.0243,0.0171 0.0736,0.0253 0.3832,0.077 0.3095,0.0516 0.8791,0.1468 1.3728,0.2311 0.4938,0.0843 0.9116,0.1577 1.3275,0.2358 0.416,0.0781 0.83,0.1609 1.2393,0.2644 0.4093,0.1035 0.8138,0.2278 1.104,0.3504 0.2901,0.1227 0.4658,0.2438 0.5415,0.346 0.0756,0.1023 0.0512,0.1857 -0.0409,0.5605"
       style="fill:#000000;fill-rule:evenodd"
       id="path20" />
    <path
       d="m 311.4966,303.554 -0.1981,-0.5067 -48.8782,14.2733 0.169,0.4746 2.0042,-0.5836"
       style="fill:none"
       id="path22" />
    <path
       d="m 311.4455,303.4298 c -0.0833,-0.067 -0.1363,-0.233 -0.1546,-0.2991 -0.0184,-0.0661 0.0488,-0.1153 0.0697,-0.1495 l -48.9587,14.2875 0.1874,0.5265 1.3125,-0.3821 47.8009,-13.9191 -0.2535,-0.0613 c -0.001,-0.001 -0.002,-0.002 -0.004,-0.003 z"
       style="fill:#000000;fill-rule:evenodd"
       id="path24" />
    <path
       d="m 311.4966,303.554 -47.5948,13.8591 0.0263,2.292 -1.2405,-0.0267 -0.0358,1.4815 -5.6137,0.0446 v 0.2418 c 0.001,-0.009 0.002,-0.0181 0.004,-0.0262 0.0123,-0.0854 0.0222,-0.0854 0.0719,-0.0859 l 0.3336,-0.003 1.1486,-0.009 2.3902,-0.0191 c 0.7287,-0.006 1.1784,-0.009 1.6204,-0.0264 0.4421,-0.017 0.8767,-0.0474 1.4304,-0.0912 0.5537,-0.0436 1.2265,-0.1006 2.0854,-0.2371 0.8589,-0.1364 1.9039,-0.3524 3.0768,-0.5968 1.1731,-0.2444 2.474,-0.5174 3.8257,-0.8053 1.3516,-0.2878 2.7537,-0.5908 4.2527,-0.9176 1.499,-0.327 3.0947,-0.6778 4.7098,-1.0572 1.615,-0.3794 3.2495,-0.7872 4.6442,-1.1442 1.3948,-0.3568 2.5499,-0.6628 4.0979,-1.0961 1.5482,-0.4333 3.4893,-0.9941 5.231,-1.5025 1.7416,-0.5084 3.2836,-0.9642 5.5373,-1.648 2.2537,-0.6838 5.7838,-1.7748 7.5708,-2.3423 1.7871,-0.5674 2.2823,-0.6894 3.2732,-1.0157 l -0.1168,-4.2896 -0.0333,-1.2489 c -0.5535,0.2154 -0.6676,0.206 -0.7422,0.1484 z"
       style="fill:#ffffff;fill-rule:evenodd"
       id="path26" />
    <path
       d="m 352.634,296.7339 c -0.1161,4.8903 -0.152,6.6395 -0.146,8.2251 0.006,1.5856 0.0539,3.0076 0.0599,4.2482 0.006,1.2405 -0.0299,2.2996 -0.1078,3.5788 -0.0778,1.2793 -0.1975,2.7786 -0.3591,4.2721 -0.1616,1.4934 -0.3651,2.9809 -0.5446,4.2363 -0.1796,1.2554 -0.3352,2.2788 -0.5507,3.7127 -0.2154,1.4339 -0.4907,3.2784 -0.7302,4.6944 -0.2394,1.4161 -0.4429,2.4038 -0.5371,2.8991 -0.0943,0.4954 -0.0793,0.4983 0.3935,0.4894 0.4729,-0.009 1.4036,-0.0297 1.8809,-0.052 0.4773,-0.0223 0.5012,-0.0462 0.611,-0.5807 0.1098,-0.5346 0.3054,-1.5799 0.5099,-2.7364 0.2046,-1.1565 0.4181,-2.4243 0.6332,-3.7429 0.2151,-1.3187 0.4319,-2.6882 0.6174,-3.997 0.1856,-1.3088 0.3399,-2.5568 0.4861,-3.8262 0.1461,-1.2693 0.2841,-2.5601 0.3761,-3.9296 0.0919,-1.3695 0.138,-2.8179 0.1642,-4.1644 0.0263,-1.3466 0.0329,-2.5913 0.0416,-3.7603 0.009,-1.169 0.0196,-2.2623 0.0145,-2.9189 -0.005,-0.6566 -0.0264,-0.8766 -0.037,-1.8314 -0.0106,-0.9549 -0.0106,-2.6446 -0.0177,-3.4907 -0.007,-0.8462 -0.0212,-0.8486 -0.0446,-0.8527 -0.0234,-0.004 -0.056,-0.01 -0.462,-0.0806 -0.406,-0.0707 -1.1852,-0.2065 -1.6295,-0.284 -0.4444,-0.0774 -0.5537,-0.0965 -0.5798,-0.101"
       style="fill:#ffffff;fill-rule:evenodd"
       id="path28" />
    <path
       d="m 361.0569,306.5053 c 0.2461,-0.505 0.322,-0.7281 0.3674,-0.9022 0.0453,-0.174 0.0602,-0.299 -0.004,-0.409 -0.0639,-0.1101 -0.2067,-0.2053 -0.4358,-0.3079 -0.2291,-0.1027 -0.5444,-0.2127 -1.2063,-0.3637 -0.6619,-0.151 -1.6705,-0.3429 -4.3639,-0.7885"
       style="fill:none"
       id="path30" />
    <path
       d="m 349.6048,301.6165 c 1.6251,0.0271 1.8573,0.0722 1.9733,0.1127 0.1161,0.0405 0.1161,0.0764 0.1191,0.2983 0.003,0.222 0.009,0.6298 0.007,0.8629 -0.001,0.2331 -0.0103,0.2913 -0.0528,0.3129 -0.0425,0.0216 -0.1186,0.006 -0.8554,-0.0496 -0.7369,-0.0562 -2.1345,-0.1533 -3.3164,-0.2068 -1.1819,-0.0535 -2.1481,-0.0634 -3.2049,-0.0634 -1.0569,0 -2.2045,0.01 -3.5077,0.0718 -1.3032,0.0619 -2.7619,0.1759 -4.2505,0.3288 -1.4885,0.153 -3.0068,0.3449 -4.5609,0.6358 -1.554,0.291 -3.1438,0.6808 -4.936,1.2027 -1.7922,0.5218 -3.7869,1.1756 -5.6446,1.7994 -1.8577,0.6238 -3.5785,1.2176 -6.1328,2.0454 -2.5544,0.8277 -5.9423,1.8894 -10.0359,3.086 -4.0935,1.1966 -8.8926,2.5282 -12.6586,3.5569 -3.7661,1.0287 -6.499,1.7545 -8.9016,2.3572 -2.4025,0.6028 -4.4745,1.0826 -6.49,1.5205 -2.0155,0.4379 -3.9745,0.8338 -5.7726,1.1727 -1.7982,0.3389 -3.4355,0.6208 -4.7782,0.8037 -1.3426,0.183 -2.3906,0.2669 -3.4861,0.3269 -1.0956,0.06 -2.2388,0.096 -3.2594,0.1088 -1.0206,0.0129 -1.9185,0.003 -2.3747,-0.01 -0.4563,-0.0128 -0.4708,-0.028 -0.4708,-0.121 0,-0.093 0.0145,-0.2636 0.0268,-0.349 0.0123,-0.0854 0.0223,-0.0855 0.0719,-0.0859 0.0496,-4e-4 0.1389,-0.001 0.3336,-0.003 0.1946,-0.002 0.4946,-0.004 1.1485,-0.009 0.6539,-0.005 1.6617,-0.0133 2.3904,-0.0191 0.7287,-0.006 1.1782,-0.009 1.6203,-0.0264 0.4421,-0.017 0.8767,-0.0474 1.4304,-0.0911 0.5537,-0.0437 1.2266,-0.1007 2.0855,-0.2371 0.8589,-0.1365 1.9038,-0.3525 3.0768,-0.5969 1.1729,-0.2444 2.4739,-0.5174 3.8255,-0.8053 1.3516,-0.2879 2.7538,-0.5908 4.2528,-0.9177 1.499,-0.3268 3.0947,-0.6777 4.7098,-1.0571 1.615,-0.3793 3.2495,-0.7872 4.6442,-1.1441 1.3948,-0.3569 2.5499,-0.6628 4.098,-1.0962 1.5481,-0.4333 3.4892,-0.9941 5.2308,-1.5025 1.7416,-0.5083 3.2838,-0.9642 5.5374,-1.648 2.2537,-0.6838 5.2189,-1.5954 7.5708,-2.3422 2.3519,-0.7468 4.0905,-1.3286 5.9274,-1.9404 1.8369,-0.6118 3.772,-1.2536 5.2665,-1.7514 1.4945,-0.4979 2.5484,-0.8518 3.6142,-1.2147 1.0657,-0.3629 2.1434,-0.7347 3.0604,-1.0316 0.9169,-0.2969 1.6731,-0.5189 2.4174,-0.7168 0.7443,-0.1979 1.4767,-0.3719 2.0431,-0.4976 0.5665,-0.1257 0.9669,-0.2032 1.7568,-0.3118 0.7898,-0.1085 1.9691,-0.2482 3.0754,-0.3719 1.1064,-0.1238 2.1399,-0.2318 3.1663,-0.3248 1.0265,-0.093 2.0458,-0.1711 3.5745,-0.1971 1.5287,-0.0261 3.5666,-10e-5 5.7777,0.0929"
       style="fill:#000000;fill-rule:evenodd"
       id="path32" />
    <path
       d="m 312.1908,303.2899 0.151,5.5441"
       style="fill:none"
       id="path34" />
    <path
       d="m 311.4008,302.9694 -48.9989,14.2993"
       style="fill:none"
       id="path36" />
    <path
       d="m 262.5894,317.7952 49.2951,-14.3541"
       style="fill:none"
       id="path38" />
    <path
       d="m 349.764,332.9591 c -0.5066,-0.1464 -0.5022,-0.2222 -0.4717,-0.6499 0.0305,-0.4276 0.087,-1.2071 0.1689,-2.1293 0.0818,-0.9222 0.1889,-1.9873 0.3287,-3.091 0.1398,-1.1037 0.3124,-2.2461 0.4596,-3.2189 0.1473,-0.9728 0.2693,-1.776 0.4225,-2.9928 0.1532,-1.2168 0.3376,-2.847 0.4953,-4.4 0.1577,-1.5529 0.2886,-3.0285 0.357,-3.9522 0.0684,-0.9237 0.0744,-1.2956 0.0788,-1.6868 0.005,-0.3912 0.007,-0.8018 0.0134,-1.2822 0.006,-0.4805 0.0149,-1.0308 0.0223,-1.6764 0.007,-0.6455 0.0134,-1.3863 0.0253,-2.3078 0.0119,-0.9215 0.0298,-2.0237 -0.0324,-2.6686"
       style="fill:none"
       id="path40" />
    <path
       d="m 349.3433,332.8118 c -0.0829,-0.0496 -0.08,-0.1002 -0.0502,-0.5152 0.0297,-0.415 0.0862,-1.1945 0.1681,-2.1167 0.0818,-0.9222 0.1889,-1.9873 0.3287,-3.091 0.1398,-1.1037 0.3124,-2.2461 0.4596,-3.2189 0.1473,-0.9728 0.2693,-1.776 0.4225,-2.9928 0.1532,-1.2168 0.3376,-2.847 0.4953,-4.4 0.1577,-1.5529 0.2885,-3.0285 0.357,-3.9522 0.0684,-0.9237 0.0744,-1.2956 0.0788,-1.6868 0.005,-0.3912 0.007,-0.8017 0.0134,-1.2822 0.006,-0.4805 0.0149,-1.0308 0.0223,-1.6764 0.007,-0.6456 0.0134,-1.3863 0.0223,-2.1241 0.009,-0.7378 0.0209,-1.4726 0.0165,-1.9475 -0.005,-0.4749 -0.0252,-0.6898 -0.0459,-0.9048 0,0.2262 -0.006,0.2738 -0.0476,0.2916 -0.0417,0.0179 -0.119,0.006 -0.8567,-0.0446 -0.7379,-0.0505 -2.1361,-0.1398 -3.3171,-0.1963 -1.181,-0.0566 -2.145,-0.0803 -3.2011,-0.0803 -1.0561,0 -2.2045,0.0237 -3.5074,0.0921 -1.3031,0.0686 -2.7607,0.1816 -4.2482,0.3333 -1.4875,0.1517 -3.0048,0.3421 -4.5577,0.6307 -1.5528,0.2886 -3.1416,0.6752 -4.9324,1.193 -1.791,0.5176 -3.7841,1.1661 -5.6404,1.7849 -1.8565,0.6187 -3.5759,1.2078 -6.1284,2.0289 -2.5525,0.8211 -5.938,1.8742 -10.0286,3.0612 -4.0906,1.187 -8.8862,2.5078 -12.6495,3.5283 -3.7633,1.0204 -6.4943,1.7403 -8.8951,2.3383 -2.4007,0.5979 -4.4713,1.0739 -6.4852,1.5082 -2.0142,0.4343 -3.9716,0.8272 -5.7685,1.1633 -1.7969,0.3361 -3.433,0.6158 -4.7747,0.7972 -1.3417,0.1816 -2.3889,0.2648 -3.4836,0.3243 -1.0948,0.0595 -2.2372,0.0951 -3.257,0.108 -1.0198,0.0128 -1.9171,0.003 -2.3731,-0.01 -0.2838,-0.008 -0.3966,-0.0167 -0.4412,-0.0445 v 0.047 l 0.2142,0.0536 c 0,0 0.0985,2.3027 0.0806,3.7484 -0.0179,1.4457 0.4285,4.8193 0.4285,4.8193 0,0 0.214,1.9367 0.5175,2.6417 0.3034,0.7051 1.9278,0.5444 1.9278,0.5444 l 76.0751,0.1784 c 0,0 11.0667,0.4999 15.4935,0 4.4267,-0.4996 5.3547,-2.82 5.3547,-2.82 0,0 2.3918,-11.8879 2.9094,-14.9045 0.5178,-3.0166 1.0174,-9.5139 1.0174,-9.5139 0.082,-0.1682 0.164,-0.3367 0.2304,-0.4951 0.0663,-0.1586 0.1169,-0.3072 0.1496,-0.4441 0.0328,-0.137 0.0476,-0.2619 -0.0163,-0.3719 -0.064,-0.1101 -0.2068,-0.2053 -0.4359,-0.308 -0.229,-0.1026 -0.5445,-0.2126 -1.0382,-0.3317 -0.4939,-0.119 -1.1662,-0.2468 -1.9512,-0.3851 -0.7852,-0.1382 -1.683,-0.2867 -2.5808,-0.4353 -0.0204,0.632 -0.0556,1.4798 -0.0836,2.3898 -0.0357,1.1602 -0.0595,2.4216 -0.0833,3.7366 -0.0238,1.3148 -0.0476,2.6833 -0.1249,4.0519 -0.0774,1.3684 -0.2083,2.7368 -0.363,4.0399 -0.1548,1.3029 -0.3332,2.5406 -0.5177,3.8495 -0.1843,1.309 -0.3748,2.6894 -0.5831,4.0162 -0.2081,1.3269 -0.4342,2.6001 -0.6246,3.7663 -0.1904,1.1661 -0.3452,2.2253 -0.4345,2.7667 -0.0893,0.5414 -0.1132,0.5652 -0.5875,0.5876 -0.4746,0.0223 -1.3999,0.0431 -1.8699,0.0521 -0.1989,0.004 -0.3162,0.005 -0.3784,-0.0315 -0.1689,-0.0488 -0.3377,-0.0976 -0.4207,-0.1473 z"
       style="fill:#ffffff;fill-rule:evenodd"
       id="path42" />
    <path
       d="m 355.3344,297.2098 0.0591,0.0162 0.0541,4.9636 c 0,0 -0.0413,-0.003 -0.0264,0 -0.004,-0.1948 -0.009,-0.4279 -0.0122,-0.7388 -0.0104,-0.9551 -0.0107,-2.6662 -0.0175,-3.4909 -0.007,-0.8247 -0.036,-0.7443 -0.0571,-0.7501 z m -5.8733,32.9701 c -0.0817,0.9222 -0.1383,1.7017 -0.168,2.1167 -0.0298,0.4149 -0.0327,0.4656 0.0502,0.5152 0.083,0.0497 0.2518,0.0985 0.4207,0.1473 -0.0848,-0.0503 -0.0668,-0.1722 -0.0128,-0.4579 0.0938,-0.4953 0.2961,-1.4831 0.5341,-2.8992 0.2378,-1.4161 0.5117,-3.2605 0.726,-4.6944 0.214,-1.4339 0.3687,-2.4573 0.5472,-3.7128 0.1785,-1.2553 0.3809,-2.7428 0.5414,-4.2363 0.1607,-1.4933 0.2797,-2.9928 0.357,-4.2719 0.0774,-1.2792 0.1131,-2.3385 0.1071,-3.5789 -0.006,-1.2406 -0.0536,-2.6625 -0.0655,-3.9567 -0.0118,-1.294 0.0119,-2.4602 0.043,-3.8584 0.0313,-1.3981 0.0697,-3.0281 0.096,-3.8419 0.0261,-0.8139 0.023,-0.6459 0.0296,-0.7042 l 0.004,-0.005 -3.0198,1.0178 -0.0177,3.8825 c 0.009,2e-4 0.0177,5e-4 0.0266,7e-4 0.4133,0.0116 0.9546,0.0205 1.3025,0.0399 0.3481,0.0194 0.5028,0.0491 0.5801,0.0819 0.0773,0.0328 0.0773,0.0683 0.0804,0.2885 0.003,0.2202 0.009,0.6248 0.009,0.8508 0.0207,0.215 0.0414,0.4299 0.0458,0.9048 0.005,0.4749 -0.007,1.2097 -0.0163,1.9475 -0.009,0.7378 -0.0149,1.4785 -0.0223,2.1241 -0.007,0.6456 -0.0164,1.1959 -0.0224,1.6764 -0.006,0.4805 -0.009,0.891 -0.0134,1.2822 -0.005,0.3912 -0.0104,0.7631 -0.0788,1.6868 -0.0685,0.9237 -0.1993,2.3993 -0.357,3.9522 -0.1577,1.553 -0.3421,3.1833 -0.4953,4.4 -0.1532,1.2167 -0.2752,2.02 -0.4225,2.9929 -0.1472,0.9727 -0.3198,2.1151 -0.4596,3.2188 -0.1398,1.1037 -0.2469,2.1688 -0.3288,3.091 z"
       style="fill:#000000;fill-rule:evenodd"
       id="path44" />
    <path
       d="m 311.4008,302.9694 c 0.1624,-0.1332 0.6345,-0.3868 1.9456,-0.9822 2.0668,-0.9385 6.2179,-2.7261 10.369,-4.5138 l -53.0669,16.5822 c 0,0 -0.3927,0.0714 -1.8207,0.7855 -1.4278,0.7139 -6.4258,2.4276 -6.4258,2.4276 z"
       style="fill:#efeff0;fill-rule:evenodd"
       id="path46" />
    <path
       d="m 315.757,301.6806 c -1.205,0.5449 -2.5733,1.1762 -3.3201,1.4872 -0.0908,0.0379 -0.1726,0.071 -0.246,0.0999 l 0.1482,5.5559 c 0.8976,-0.2996 1.7422,-0.585 2.6087,-0.8774 1.8356,-0.6191 3.7694,-1.2685 5.2626,-1.7723 1.4935,-0.5039 2.5487,-0.8566 3.6137,-1.2239 1.065,-0.3672 2.1454,-0.7324 3.0617,-1.0329 0.9162,-0.3005 1.7624,-0.5435 2.4108,-0.7181 0.6484,-0.1747 1.1987,-0.3044 1.6754,-0.4165 -2.2917,-1.4904 -4.6828,-2.9845 -5.8732,-3.7602 -1.1904,-0.7755 -1.2798,-0.8362 -1.3392,-0.8575 -0.0595,-0.0213 -0.0891,-0.003 -0.8701,0.346 -0.781,0.349 -2.313,1.0289 -3.5998,1.5978 -1.2866,0.5691 -2.3278,1.0274 -3.5327,1.572 z"
       style="fill:#efeff0;fill-rule:evenodd"
       id="path48" />
    <path
       d="m 312.4005,303.2006 c 0.7467,-0.3049 2.1151,-0.9237 3.32,-1.4577 1.2048,-0.534 2.2461,-0.9832 3.5327,-1.541 1.2867,-0.5578 2.8188,-1.2242 3.5997,-1.5663 0.7809,-0.3421 0.8107,-0.3599 0.8701,-0.3391 0.0595,0.0208 0.1488,0.0803 1.3393,0.8405 1.1904,0.7603 3.4821,2.2213 4.6432,2.9483 1.1611,0.7269 1.1917,0.72 1.3508,0.6852 0.1592,-0.0347 0.4469,-0.0972 0.5835,-0.1383 0.1365,-0.0412 0.1217,-0.061 -0.1773,-0.2542 -0.2991,-0.1932 -0.8823,-0.5596 -1.4322,-0.9051 l -1.5414,-0.9685 -1.4197,-0.892 -1.5954,-1.0024 -1.1658,-0.7326 -0.4504,-0.283 -0.1178,-0.074 -0.0353,-0.0222 -0.0127,-0.008 c -0.004,-0.002 -0.008,-0.005 -2.0862,0.8871 -2.0779,0.8924 -6.2291,2.68 -8.2957,3.6185 -2.0667,0.9385 -2.0488,1.0277 -2.0191,1.1349 0.0297,0.107 0.0714,0.232 0.1547,0.2989 0.0833,0.067 0.2083,0.0759 0.955,-0.2291 z"
       style="fill:#000000;fill-rule:evenodd"
       id="path50" />
  </g>
  <path
     d="m 206.3933,0.28345001 c 93.8108,0 169.8595,76.04869999 169.8595,169.85949999 0,12.3221 -1.3241,24.3333 -3.8161,35.9104 0.1044,-0.6095 0.2055,-1.2202 0.3035,-1.8319 0.1191,-0.745 0.2339,-1.4914 0.3433,-2.2396 0.1052,-0.7189 0.2061,-1.4392 0.3023,-2.161 0.0807,-0.6038 0.1582,-1.2084 0.232,-1.8143 0.1096,-0.8951 0.2122,-1.7923 0.3077,-2.6916 0.0457,-0.4296 0.0899,-0.8595 0.1321,-1.2902 0.106,-1.0767 0.2019,-2.1563 0.2876,-3.2388 0.021,-0.265 0.0415,-0.5301 0.0611,-0.7955 0.0918,-1.2341 0.1703,-2.4719 0.2353,-3.7133 0.007,-0.1311 0.0137,-0.2621 0.0202,-0.3933 0.0676,-1.3528 0.1193,-2.7097 0.1547,-4.0707 l 0.003,-0.1234 c 0.036,-1.425 0.0543,-2.8544 0.0543,-4.2881 0,-93.0521 -75.4337,-168.4858 -168.4859,-168.4858 -93.0522,0 -168.4859,75.4337 -168.4859,168.4858 0,1.4318 0.0183,2.8594 0.0542,4.2824 l 0.003,0.1331 c 0.0353,1.3541 0.0866,2.7042 0.1539,4.05 0.007,0.1435 0.0145,0.287 0.0221,0.4304 0.0642,1.2223 0.1414,2.4412 0.2317,3.6565 0.0217,0.2926 0.0442,0.585 0.0674,0.8772 0.0831,1.0454 0.1757,2.0881 0.2778,3.1281 0.0473,0.4815 0.0966,0.9624 0.1479,1.4427 0.0891,0.8344 0.1843,1.6669 0.2855,2.4977 0.0849,0.6968 0.1741,1.3923 0.2673,2.0866 0.0822,0.6112 0.1676,1.2214 0.2562,1.8305 0.1274,0.8753 0.2614,1.7483 0.4019,2.6193 0.0762,0.4722 0.1543,0.9438 0.2344,1.4147 -2.4638,-11.5146 -3.7721,-23.4577 -3.7721,-35.7079 0,-93.8108 76.0487,-169.85949999 169.8596,-169.85949999 z"
     style="fill:#000000;fill-rule:evenodd;stroke:#000000;stroke-width:0.5669;stroke-linecap:butt;stroke-linejoin:miter;stroke-dasharray:none"
     id="path53" />
  
  <path
     d="M 0,288.99145 H 450.1525"
     style="fill:none;stroke:#000000;stroke-width:1.9199;stroke-linecap:butt;stroke-linejoin:miter;stroke-dasharray:none"
     id="path67" />
  <path
     d="m 191.5546,200.34515 c 10.7399,0 20.0041,-2.0496 27.4236,-3.8259 7.4195,-1.7763 12.9944,-3.2793 17.9818,-4.7277 4.9873,-1.4484 9.3871,-2.8421 12.9534,-3.9625 3.5663,-1.1205 6.2991,-1.9676 9.1275,-2.6918 2.8285,-0.7242 5.7526,-1.3254 9.4487,-1.6876 3.6961,-0.3621 8.1642,-0.485 12.9192,-0.4031"
     style="fill:none;stroke:#000000;stroke-width:0.216;stroke-linecap:butt;stroke-linejoin:miter;stroke-dasharray:none"
     id="path69" />
  <path
     d="m 191.8826,203.25565 c 3.0333,0 5.1239,-0.123 7.358,-0.3075 2.234,-0.1844 4.6116,-0.4304 6.7431,-0.69 2.1316,-0.2596 4.0172,-0.5329 6.2445,-0.9428 2.2272,-0.4099 4.796,-0.9565 7.6655,-1.626 2.8694,-0.6696 6.0394,-1.4621 9.1958,-2.2819 3.1564,-0.8198 6.2991,-1.667 9.6058,-2.6098 3.3067,-0.9428 6.7773,-1.9813 9.7834,-2.8558 3.006,-0.8745 5.5475,-1.585 7.9661,-2.1589 2.4185,-0.5739 4.714,-1.0111 6.9515,-1.3391 2.2375,-0.328 4.4169,-0.5467 6.9934,-0.703 2.5765,-0.1563 5.5502,-0.2502 10.7527,-0.2058"
     style="fill:none;stroke:#000000;stroke-width:0.216;stroke-linecap:butt;stroke-linejoin:miter;stroke-dasharray:none"
     id="path71" />
  <path
     d="m 192.0875,206.06305 c 2.3775,0 3.8327,0 6.0292,-0.0957 2.1965,-0.0956 5.1342,-0.2869 8.7074,-0.7173 3.5731,-0.4304 7.7816,-1.1 12.851,-2.1589 5.0693,-1.059 10.9995,-2.5074 16.547,-3.9352 5.5476,-1.4279 10.7126,-2.8353 15.0304,-3.8601 4.3178,-1.0248 7.7885,-1.667 12.5367,-2.1008 4.7482,-0.4339 10.774,-0.6593 16.9228,-0.4544"
     style="fill:none;stroke:#000000;stroke-width:0.216;stroke-linecap:butt;stroke-linejoin:miter;stroke-dasharray:none"
     id="path73" />
  <path
     d="m 192.4956,209.62955 c 6.4767,0.0819 9.961,-1e-4 13.2608,-0.2597 3.2999,-0.2596 6.4153,-0.6968 9.4624,-1.2161 3.0471,-0.5192 6.0258,-1.1204 8.9909,-1.7353 2.965,-0.6149 5.9165,-1.2434 8.9635,-1.9676 3.0471,-0.7242 6.1898,-1.544 8.9773,-2.2545 2.7874,-0.7106 5.2196,-1.3118 7.6654,-1.8584 2.4459,-0.5465 4.9054,-1.0385 7.4606,-1.421 2.5552,-0.3826 5.206,-0.6559 8.499,-0.7925 3.293,-0.1367 7.2282,-0.1367 14.5248,-0.0547"
     style="fill:none;stroke:#000000;stroke-width:0.216;stroke-linecap:butt;stroke-linejoin:miter;stroke-dasharray:none"
     id="path75" />
  <path
     d="m 244.3912,207.08795 c 5.9848,-1.1477 9.756,-1.8036 13.1447,-2.2545 3.3887,-0.4509 6.3947,-0.6969 9.9884,-0.8199 3.5936,-0.1229 7.7748,-0.1229 12.1199,0.0411"
     style="fill:none;stroke:#000000;stroke-width:0.216;stroke-linecap:butt;stroke-linejoin:miter;stroke-dasharray:none"
     id="path77" />
  <path
     d="m 281.4088,183.04655 q 1.827,0.0507 3.4803,4.6221"
     style="fill:none;stroke:#000000;stroke-width:0.216;stroke-linecap:butt;stroke-linejoin:miter;stroke-dasharray:none"
     id="path79" />
  <path
     d="m 281.1424,187.53505 c 1.2119,0.0306 2.3187,0.0511 3.6953,0.1336"
     style="fill:none;stroke:#000000;stroke-width:0.216;stroke-linecap:butt;stroke-linejoin:miter;stroke-dasharray:none"
     id="path81" />
  <path
     d="m 280.712,192.74065 c 1.1299,0.0312 1.6423,0.0619 2.1752,0.1029 0.5329,0.041 1.0863,0.0923 1.5707,0.1305"
     style="fill:none;stroke:#000000;stroke-width:0.216;stroke-linecap:butt;stroke-linejoin:miter;stroke-dasharray:none"
     id="path83" />
  <path
     d="m 280.3003,198.06975 c 0.9884,0.001 1.4598,0.0318 2.0132,0.0625 0.5533,0.0308 1.1887,0.0615 1.5578,0.0847"
     style="fill:none;stroke:#000000;stroke-width:0.216;stroke-linecap:butt;stroke-linejoin:miter;stroke-dasharray:none"
     id="path85" />
  <path
     d="m 279.6442,204.05465 q 1.8905,0.0832 3.3658,-19.2736"
     style="fill:none;stroke:#000000;stroke-width:0.216;stroke-linecap:butt;stroke-linejoin:miter;stroke-dasharray:none"
     id="path87" />
  <path
     d="m 288.6642,183.38415 c 1.7453,0.2892 3.9179,0.8221 5.5276,1.3969"
     style="fill:none;stroke:#000000;stroke-width:0.216;stroke-linecap:butt;stroke-linejoin:miter;stroke-dasharray:none"
     id="path89" />
  <path
     d="m 288.5917,188.02695 q 1.903,0.3693 5.1724,6.9928"
     style="fill:none;stroke:#000000;stroke-width:0.216;stroke-linecap:butt;stroke-linejoin:miter;stroke-dasharray:none"
     id="path91" />
  <path
     d="m 288.1875,193.24105 c 1.7521,0.3882 3.4122,0.8392 4.7825,1.2728"
     style="fill:none;stroke:#000000;stroke-width:0.216;stroke-linecap:butt;stroke-linejoin:miter;stroke-dasharray:none"
     id="path93" />
  <path
     d="m 96.599,175.35885 c 0,0 -14.7976,11.9811 -28.9276,15.5625 -14.1301,3.5815 -11.3861,2.427 -11.3861,2.427 0,0 -0.5719,3.5642 -0.3185,4.4102 0.2534,0.8461 15.0092,-3.7766 20.837,-6.4464 5.8279,-2.6698 13.1859,-8.237 15.2045,-10.2557 2.0186,-2.0186 4.5907,-5.6976 4.5907,-5.6976 z"
     style="fill:#ffffff;fill-rule:evenodd;stroke:#000000;stroke-width:0.216;stroke-linecap:butt;stroke-linejoin:miter;stroke-dasharray:none"
     id="path99" />
  <path
     d="m 126.147,167.13325 3.4226,-0.2727 c 0,0 1.4254,0.0665 2.3696,0.3758 0.9442,0.3094 2.3442,2.2791 2.3442,2.2791 l 3.4511,4.0372 c 0,0 1.5628,2.9301 2.0186,4.2325 0.4557,1.3023 0.0926,2.1231 -0.5861,2.0837 -0.7,-0.0407 -0.936,-0.2442 -0.936,-0.2442 -1.6905,-1.3848 -2.4294,-3.8636 -3.9151,-5.193 -0.6186,-0.5535 -4.3465,-3.6302 -5.0628,-4.1023 -0.7162,-0.472 -3.0767,-1.9372 -3.2232,-2.0511 -0.1465,-0.114 -0.5322,-0.2909 -0.4558,-0.6023 0.0763,-0.3114 0.5449,-0.5356 0.5729,-0.5427 z"
     style="fill:#ffffff;fill-rule:evenodd;stroke:#000000;stroke-width:0.216;stroke-linecap:butt;stroke-linejoin:miter;stroke-dasharray:none"
     id="path101" />
  <path
     d="m 319.5945,175.19865 c 0,0 -1.0418,-1.2372 -1.7581,-2.8 -0.7163,-1.5628 -0.7813,-3.7767 -1.4325,-5.0139 -0.6512,-1.2372 -4.493,-5.4697 -4.7535,-5.9255 -0.2604,-0.4559 -5.9255,-6.9023 -5.9255,-6.9023 0,0 -2.3442,-2.279 -2.8,-2.4093 -0.4558,-0.1302 -1.9534,-0.5209 -2.3441,0.1954 -0.3907,0.7163 -0.3256,2.6046 0.5209,3.7116 0.8465,1.107 4.7534,5.8604 4.9488,6.186 0.1953,0.3255 5.2092,6.1859 5.2092,6.1859 l 2.5395,3.7116 2.3442,2.6698 c 0,0 1.1721,1.4325 1.5628,1.693 0.3907,0.2604 1.2209,0.4558 1.5465,0.1465 0.3256,-0.3093 0.4559,-0.9931 0.4559,-1.0907 0,-0.0976 -0.1141,-0.3581 -0.1141,-0.3581 z"
     style="fill:#ffffff;fill-rule:evenodd;stroke:#000000;stroke-width:0.216;stroke-linecap:butt;stroke-linejoin:miter;stroke-dasharray:none"
     id="path103" />
  <path
     d="m 361.887,180.39215 c 0,0 -2.2098,-2.731 -3.4022,-4.3139 -1.1924,-1.5829 -2.9629,-3.5976 -3.8744,-4.5256 -0.9115,-0.9279 -2.7194,-2.0153 -4.0047,-2.279 -1.2852,-0.2637 -2.9383,-0.7001 -3.4836,-0.8791 -0.5454,-0.1791 -1.5628,-1.2372 0.1953,-1.5628 1.7581,-0.3256 5.2744,0.1954 6.0558,0.5861 0.7813,0.3907 4.3909,3.4421 5.4697,4.8186 1.0788,1.3764 3.1929,3.9666 3.9069,4.9813 0.7139,1.0148 1.7093,2.7511 1.1721,3.4186 -0.5372,0.6674 -1.6605,0.0488 -2.0349,-0.2442 z"
     style="fill:#ffffff;fill-rule:evenodd;stroke:#000000;stroke-width:0.216;stroke-linecap:butt;stroke-linejoin:miter;stroke-dasharray:none"
     id="path105" />
  <path
     d="m 167.62,83.84425 c 0,0 -0.5634,-0.958 -0.5061,-2.5522 0.0572,-1.5942 0.7898,-3.4732 2.1179,-5.0674 1.3281,-1.5942 4.9147,-3.5866 6.7751,-4.9152 4.1896,-2.9921 11.4698,-8.1453 12.3219,-13.1524 0.01,-0.0608 -0.6171,0.83 -1.7228,1.6042 -1.1051,0.7738 -2.6898,1.4341 -3.9561,1.8498 -2.5327,0.831 -3.7202,1.5942 -6.9087,2.9228 -3.1884,1.3286 -5.4173,2.5634 -7.6758,4.8224 -2.258,2.2585 -2.8199,3.8136 -3.2181,4.6104 -0.3977,0.7969 -0.6643,2.9223 -0.6643,2.9223 0,0 -2.6582,-0.1079 -5.9782,0 -4.3669,0.1416 -6.3924,0.9671 -9.2259,2.4072 -3.1558,1.6032 -5.7547,4.8293 -9.1079,5.7633 -3.2356,0.9008 -6.5119,-0.1687 -5.7703,0.1963 5.3009,2.609 11.9137,3.2673 17.4476,0.3429 2.1279,-1.1242 2.9564,-1.551 5.4941,-2.1997 2.7853,-0.712 7.7678,-0.0658 10.5776,0.4453 z"
     style="fill:#000000;fill-rule:evenodd"
     id="path107" />
  <text
     x="91.031204"
     y="278.25015"
     id="text111"><tspan
       font-family="Constantine"
       font-size="52px"
       fill="#000000"
       id="tspan109">В</tspan></text>
  <text
     x="46.728298"
     y="278.35934"
     id="text115"><tspan
       font-family="Constantine"
       font-size="52px"
       fill="#000000"
       id="tspan113">О</tspan></text>
  <text
     x="320.51901"
     y="278.37683"
     id="text119"><tspan
       font-family="Constantine"
       font-size="52px"
       fill="#000000"
       id="tspan117">В</tspan></text>
  <text
     x="275.91449"
     y="278.45853"
     id="text123"><tspan
       font-family="Constantine"
       font-size="52px"
       fill="#000000"
       id="tspan121">О</tspan></text>
  <text
     x="2.5332992"
     y="278.48114"
     id="text127"><tspan
       font-family="Constantine"
       font-size="52px"
       fill="#000000"
       id="tspan125">Н</tspan></text>
  <text
     x="126.6582"
     y="278.51434"
     id="text131"><tspan
       font-family="Constantine"
       font-size="52px"
       fill="#000000"
       id="tspan129">Ы</tspan></text>
  <text
     x="172.368"
     y="279.02744"
     id="text135"><tspan
       font-family="Constantine"
       font-size="52px"
       fill="#000000"
       id="tspan133">Й</tspan></text>
  <text
     x="238.65701"
     y="278.66373"
     id="text139"><tspan
       font-family="Constantine"
       font-size="52px"
       fill="#000000"
       id="tspan137">К</tspan></text>
  <text
     x="351.60461"
     y="278.22464"
     id="text143"><tspan
       font-family="Constantine"
       font-size="52px"
       fill="#000000"
       id="tspan141">Ч</tspan></text>
  <text
     x="392.43539"
     y="278.52823"
     id="text147"><tspan
       font-family="Constantine"
       font-size="52px"
       fill="#000000"
       id="tspan145">Е</tspan></text>
  <text
     x="427.10541"
     y="278.42426"
     id="text151"><tspan
       font-family="Constantine"
       font-size="52px"
       fill="#000000"
       id="tspan149">Г</tspan></text>
</svg>
